<svg width="1200" height="630" viewBox="0 0 1200 630" xmlns="http://www.w3.org/2000/svg">
  <defs>
    <radialGradient id="glow1" cx="75%" cy="20%" r="50%">
      <stop offset="0%" stop-color="#00ff41" stop-opacity="0.15"/>
      <stop offset="100%" stop-color="#00ff41" stop-opacity="0"/>
    </radialGradient>
    <radialGradient id="glow2" cx="20%" cy="85%" r="45%">
      <stop offset="0%" stop-color="#00ff41" stop-opacity="0.08"/>
      <stop offset="100%" stop-color="#00ff41" stop-opacity="0"/>
    </radialGradient>
  </defs>

  <!-- Background -->
  <rect width="1200" height="630" fill="#0a0a0a"/>

  <!-- Gradient blobs -->
  <rect width="1200" height="630" fill="url(#glow1)"/>
  <rect width="1200" height="630" fill="url(#glow2)"/>

  <!-- Network lines -->
  <line x1="150" y1="60" x2="380" y2="130" stroke="#00ff41" stroke-opacity="0.12" stroke-width="1"/>
  <line x1="380" y1="130" x2="620" y2="80" stroke="#00ff41" stroke-opacity="0.1" stroke-width="1"/>
  <line x1="620" y1="80" x2="880" y2="170" stroke="#00ff41" stroke-opacity="0.08" stroke-width="1"/>
  <line x1="880" y1="170" x2="1100" y2="110" stroke="#00ff41" stroke-opacity="0.06" stroke-width="1"/>
  <line x1="250" y1="480" x2="500" y2="400" stroke="#00ff41" stroke-opacity="0.1" stroke-width="1"/>
  <line x1="500" y1="400" x2="780" y2="500" stroke="#00ff41" stroke-opacity="0.08" stroke-width="1"/>
  <line x1="780" y1="500" x2="1050" y2="420" stroke="#00ff41" stroke-opacity="0.06" stroke-width="1"/>
  <line x1="1050" y1="420" x2="1150" y2="520" stroke="#00ff41" stroke-opacity="0.05" stroke-width="1"/>
  <line x1="900" y1="50" x2="1080" y2="150" stroke="#00ff41" stroke-opacity="0.07" stroke-width="1"/>
  <line x1="100" y1="350" x2="300" y2="280" stroke="#00ff41" stroke-opacity="0.06" stroke-width="1"/>

  <!-- Network nodes -->
  <circle cx="380" cy="130" r="3" fill="#00ff41" opacity="0.5"/>
  <circle cx="620" cy="80" r="2.5" fill="#00ff41" opacity="0.4"/>
  <circle cx="880" cy="170" r="2" fill="#00ff41" opacity="0.35"/>
  <circle cx="500" cy="400" r="3" fill="#00ff41" opacity="0.35"/>
  <circle cx="780" cy="500" r="2.5" fill="#00ff41" opacity="0.3"/>
  <circle cx="1050" cy="420" r="2" fill="#00ff41" opacity="0.25"/>
  <circle cx="150" cy="60" r="2" fill="#00ff41" opacity="0.3"/>
  <circle cx="1100" cy="110" r="2.5" fill="#00ff41" opacity="0.25"/>
  <circle cx="900" cy="50" r="2" fill="#00ff41" opacity="0.3"/>
  <circle cx="250" cy="480" r="2" fill="#00ff41" opacity="0.25"/>

  <!-- Scattered dots -->
  <circle cx="200" cy="200" r="1.5" fill="#00ff41" opacity="0.2"/>
  <circle cx="450" cy="300" r="1" fill="white" opacity="0.06"/>
  <circle cx="700" cy="250" r="1.5" fill="#00ff41" opacity="0.15"/>
  <circle cx="950" cy="350" r="1" fill="white" opacity="0.06"/>
  <circle cx="1100" cy="280" r="1.5" fill="#00ff41" opacity="0.12"/>
  <circle cx="300" cy="550" r="1" fill="white" opacity="0.05"/>
  <circle cx="600" cy="560" r="1.5" fill="#00ff41" opacity="0.1"/>
  <circle cx="850" cy="300" r="1" fill="white" opacity="0.06"/>
  <circle cx="100" cy="150" r="1" fill="#00ff41" opacity="0.15"/>
  <circle cx="1050" cy="550" r="1" fill="white" opacity="0.05"/>

  <!-- Border frame -->
  <rect x="20" y="20" width="1160" height="590" fill="none" stroke="white" stroke-opacity="0.08" stroke-width="1"/>

  <!-- Corner accents -->
  <path d="M20,40 L20,20 L40,20" fill="none" stroke="#00ff41" stroke-width="2"/>
  <path d="M1160,590 L1180,590 L1180,610" fill="none" stroke="#00ff41" stroke-width="2"/>

  <!-- Kicker line -->
  <line x1="90" y1="198" x2="126" y2="198" stroke="#00ff41" stroke-width="2"/>

  <!-- Kicker text -->
  <text x="138" y="203" font-family="monospace" font-size="15" fill="#00ff41" letter-spacing="2">2026 관광기업 데이터·AI 활용 지원 사업</text>

  <!-- Title line 1 -->
  <text x="90" y="275" font-family="'Pretendard Variable', 'Apple SD Gothic Neo', sans-serif" font-size="56" font-weight="800" fill="white" letter-spacing="-1">우리 기업에 맞는</text>

  <!-- Title line 2 with highlight -->
  <rect x="82" y="292" width="720" height="68" fill="#00ff41" opacity="0.45" rx="2"/>
  <text x="90" y="347" font-family="'Pretendard Variable', 'Apple SD Gothic Neo', sans-serif" font-size="56" font-weight="800" fill="white" letter-spacing="-1">데이터·AI 활용 지원 사업</text>

  <!-- Title line 3 -->
  <text x="90" y="420" font-family="'Pretendard Variable', 'Apple SD Gothic Neo', sans-serif" font-size="56" font-weight="800" fill="white" letter-spacing="-1">유형 확인하기</text>

  <!-- Description -->
  <text x="90" y="480" font-family="'Pretendard Variable', 'Apple SD Gothic Neo', sans-serif" font-size="22" fill="white" opacity="0.55" letter-spacing="0.5">우리 회사에 맞을 것 같은</text>
  <text x="90" y="512" font-family="'Pretendard Variable', 'Apple SD Gothic Neo', sans-serif" font-size="22" fill="white" opacity="0.55" letter-spacing="0.5">지원 유형을 살펴보세요.</text>
</svg>
