<?xml version="1.0" encoding="UTF-8"?><svg id="_레이어_2" xmlns="http://www.w3.org/2000/svg" viewBox="0 0 279.92 51.48"><defs><style>.cls-1{fill:#3395da;}</style></defs><g id="Logo"><path class="cls-1" d="M79.64,19.81c-5.05-1.18-7.61-2.23-7.61-4.7,0-3.14,4.29-3.96,6.56-3.96,4.78,0,9.56,1.34,13.12,3.66l.48.31,4.1-8.69-.36-.24c-5.21-3.45-10.72-5.05-17.34-5.05-8.6,0-17.85,4.37-17.85,13.96,0,10.14,9.34,13.15,18.09,15.17l.29.07c3.91.96,7.61,1.86,7.61,4.99,0,3.43-4.76,4.97-8.14,4.97-7.21,0-11.65-2.54-15.04-5.02l-.49-.36-3.93,8.32-.16.37.31.25c2.59,2.09,7.99,6.44,19.31,6.44,9.78,0,19.65-4.63,19.65-14.97s-8.94-13.27-18.6-15.54Z"/><path class="cls-1" d="M25.2,1.15C10.83,1.15,0,11.71,0,25.7s10.83,24.62,25.2,24.62,25.2-10.59,25.2-24.62S39.56,1.15,25.2,1.15ZM25.27,40.18c-7.84,0-13.76-6.22-13.76-14.48s6.04-14.41,13.76-14.41,13.61,6.19,13.61,14.41-5.85,14.48-13.61,14.48Z"/><polygon class="cls-1" points="194.3 22.47 170.51 .88 168.31 .88 168.31 49.54 179.39 49.54 179.39 23.9 194.3 37.44 209.2 23.9 209.2 49.54 220.28 49.54 220.28 .88 218.09 .88 194.3 22.47"/><polygon class="cls-1" points="255.38 .88 253.36 .88 228.82 49.54 241.24 49.54 254.37 23.5 267.5 49.54 279.92 49.54 255.38 .88"/><path class="cls-1" d="M116.29,9.47c-12.63,12.63-12.63,19.9,0,32.54,12.63,12.63,19.9,12.63,32.54,0,12.63-12.63,12.63-19.9,0-32.54-12.63-12.63-19.9-12.63-32.54,0ZM132.56,39.04c-7.35,0-13.3-5.95-13.3-13.3s5.95-13.31,13.3-13.31,13.31,5.96,13.31,13.31-5.96,13.3-13.31,13.3Z"/></g></svg>